{
  "accessors": [
    {
      "bufferView": 2,
      "componentType": 5126,
      "count": 618,
      "max": [
        0.13992923498153687,
        0.29698795080184937,
        0.12320712208747864
      ],
      "min": [
        -0.13992942869663239,
        -9.071755630429834e-05,
        -0.12320713698863983
      ],
      "type": "VEC3"
    },
    {
      "bufferView": 2,
      "byteOffset": 7416,
      "componentType": 5126,
      "count": 618,
      "max": [
        0.9999944567680359,
        0.9998932480812073,
        0.9999963641166687
      ],
      "min": [
        -0.9999945759773254,
        -1.0002031326293945,
        -0.9999963641166687
      ],
      "type": "VEC3"
    },
    {
      "bufferView": 1,
      "componentType": 5126,
      "count": 618,
      "max": [
        0.9872429966926575,
        0.9795989990234375
      ],
      "min": [
        0.010994600132107735,
        0.019504500553011894
      ],
      "type": "VEC2"
    },
    {
      "bufferView": 0,
      "componentType": 5125,
      "count": 2448,
      "type": "SCALAR"
    },
    {
      "bufferView": 2,
      "byteOffset": 14832,
      "componentType": 5126,
      "count": 20,
      "max": [
        0.045336395502090454,
        0.2345331609249115,
        0.10130511224269867
      ],
      "min": [
        -0.04533810168504715,
        0.19178010523319244,
        0.07872102409601212
      ],
      "type": "VEC3"
    },
    {
      "bufferView": 2,
      "byteOffset": 15072,
      "componentType": 5126,
      "count": 20,
      "max": [
        0.49754446744918823,
        0.4258837103843689,
        0.9644228219985962
      ],
      "min": [
        -0.49754589796066284,
        0.20472723245620728,
        0.7556936144828796
      ],
      "type": "VEC3"
    },
    {
      "bufferView": 1,
      "byteOffset": 4944,
      "componentType": 5126,
      "count": 20,
      "max": [
        1.2385900020599365,
        0.9741320013999939
      ],
      "min": [
        1.0115599632263184,
        0.5196809768676758
      ],
      "type": "VEC2"
    },
    {
      "bufferView": 0,
      "byteOffset": 9792,
      "componentType": 5125,
      "count": 60,
      "type": "SCALAR"
    },
    {
      "bufferView": 2,
      "byteOffset": 15312,
      "componentType": 5126,
      "count": 9,
      "max": [
        0.015610188245773315,
        0.22208814322948456,
        0.10272009670734406
      ],
      "min": [
        -0.015612010844051838,
        0.19178012013435364,
        0.09244716167449951
      ],
      "type": "VEC3"
    },
    {
      "bufferView": 2,
      "byteOffset": 15420,
      "componentType": 5126,
      "count": 9,
      "max": [
        0.1677391678094864,
        0.3518132269382477,
        0.9758647084236145
      ],
      "min": [
        -0.16774088144302368,
        0.20472721755504608,
        0.9254868030548096
      ],
      "type": "VEC3"
    },
    {
      "bufferView": 1,
      "byteOffset": 5104,
      "componentType": 5126,
      "count": 9,
      "max": [
        -0.79441899061203,
        0.9792349934577942
      ],
      "min": [
        -0.9070990085601807,
        0.5209500193595886
      ],
      "type": "VEC2"
    },
    {
      "bufferView": 0,
      "byteOffset": 10032,
      "componentType": 5125,
      "count": 24,
      "type": "SCALAR"
    },
    {
      "bufferView": 2,
      "byteOffset": 15528,
      "componentType": 5126,
      "count": 9,
      "max": [
        0.015610188245773315,
        0.22208814322948456,
        0.10272009670734406
      ],
      "min": [
        -0.015612010844051838,
        0.19178012013435364,
        0.09244716167449951
      ],
      "type": "VEC3"
    },
    {
      "bufferView": 2,
      "byteOffset": 15636,
      "componentType": 5126,
      "count": 9,
      "max": [
        0.1677391678094864,
        0.3518132269382477,
        0.9758647084236145
      ],
      "min": [
        -0.16774088144302368,
        0.20472721755504608,
        0.9254868030548096
      ],
      "type": "VEC3"
    },
    {
      "bufferView": 1,
      "byteOffset": 5176,
      "componentType": 5126,
      "count": 9,
      "max": [
        -0.79441899061203,
        0.9792349934577942
      ],
      "min": [
        -0.9070990085601807,
        0.5209500193595886
      ],
      "type": "VEC2"
    },
    {
      "bufferView": 0,
      "byteOffset": 10128,
      "componentType": 5125,
      "count": 24,
      "type": "SCALAR"
    },
    {
      "bufferView": 2,
      "byteOffset": 15744,
      "componentType": 5126,
      "count": 20,
      "max": [
        0.045336395502090454,
        0.2345331609249115,
        0.10130511224269867
      ],
      "min": [
        -0.04533810168504715,
        0.19178010523319244,
        0.07872102409601212
      ],
      "type": "VEC3"
    },
    {
      "bufferView": 2,
      "byteOffset": 15984,
      "componentType": 5126,
      "count": 20,
      "max": [
        0.49754446744918823,
        0.4258837103843689,
        0.9644228219985962
      ],
      "min": [
        -0.49754589796066284,
        0.20472723245620728,
        0.7556936144828796
      ],
      "type": "VEC3"
    },
    {
      "bufferView": 1,
      "byteOffset": 5248,
      "componentType": 5126,
      "count": 20,
      "max": [
        1.2385900020599365,
        0.9741320013999939
      ],
      "min": [
        1.0115599632263184,
        0.5196809768676758
      ],
      "type": "VEC2"
    },
    {
      "bufferView": 0,
      "byteOffset": 10224,
      "componentType": 5125,
      "count": 60,
      "type": "SCALAR"
    },
    {
      "bufferView": 2,
      "byteOffset": 16224,
      "componentType": 5126,
      "count": 618,
      "max": [
        0.13992923498153687,
        0.29698795080184937,
        0.12320712208747864
      ],
      "min": [
        -0.13992942869663239,
        -9.071755630429834e-05,
        -0.12320713698863983
      ],
      "type": "VEC3"
    },
    {
      "bufferView": 2,
      "byteOffset": 23640,
      "componentType": 5126,
      "count": 618,
      "max": [
        0.9999944567680359,
        0.9998932480812073,
        0.9999963641166687
      ],
      "min": [
        -0.9999945759773254,
        -1.0002031326293945,
        -0.9999963641166687
      ],
      "type": "VEC3"
    },
    {
      "bufferView": 1,
      "byteOffset": 5408,
      "componentType": 5126,
      "count": 618,
      "max": [
        0.9872429966926575,
        0.9795989990234375
      ],
      "min": [
        0.010994600132107735,
        0.019504500553011894
      ],
      "type": "VEC2"
    },
    {
      "bufferView": 0,
      "byteOffset": 10464,
      "componentType": 5125,
      "count": 2448,
      "type": "SCALAR"
    }
  ],
  "asset": {
    "extras": {
      "author": "nguyenlouis32 (https://sketchfab.com/nguyenlouis32)",
      "license": "CC-BY-4.0 (http://creativecommons.org/licenses/by/4.0/)",
      "source": "https://sketchfab.com/3d-models/togepi-f091c97e48a2423d98d3d1b839d6211b",
      "title": "Togepi"
    },
    "generator": "Sketchfab-13.31.0",
    "version": "2.0"
  },
  "bufferViews": [
    {
      "buffer": 0,
      "byteLength": 20256,
      "name": "floatBufferViews",
      "target": 34963
    },
    {
      "buffer": 0,
      "byteLength": 10352,
      "byteOffset": 20256,
      "byteStride": 8,
      "name": "floatBufferViews",
      "target": 34962
    },
    {
      "buffer": 0,
      "byteLength": 31056,
      "byteOffset": 30608,
      "byteStride": 12,
      "name": "floatBufferViews",
      "target": 34962
    }
  ],
  "buffers": [
    {
      "byteLength": 61664,
      "uri": "scene.bin"
    }
  ],
  "images": [
    {
      "uri": "textures/body_mat_baseColor.png"
    },
    {
      "uri": "textures/eye_mat_baseColor.png"
    },
    {
      "uri": "textures/mouth_mat_baseColor.png"
    }
  ],
  "materials": [
    {
      "doubleSided": true,
      "name": "body_mat",
      "pbrMetallicRoughness": {
        "baseColorTexture": {
          "index": 0
        },
        "metallicFactor": 0.0,
        "roughnessFactor": 0.6
      }
    },
    {
      "doubleSided": true,
      "name": "eye_mat",
      "pbrMetallicRoughness": {
        "baseColorTexture": {
          "index": 1
        },
        "metallicFactor": 0.0,
        "roughnessFactor": 0.6
      }
    },
    {
      "doubleSided": true,
      "name": "mouth_mat",
      "pbrMetallicRoughness": {
        "baseColorTexture": {
          "index": 2
        },
        "metallicFactor": 0.0,
        "roughnessFactor": 0.6
      }
    }
  ],
  "meshes": [
    {
      "name": "Object_0",
      "primitives": [
        {
          "attributes": {
            "NORMAL": 1,
            "POSITION": 0,
            "TEXCOORD_0": 2
          },
          "indices": 3,
          "material": 0,
          "mode": 4
        }
      ]
    },
    {
      "name": "Object_1",
      "primitives": [
        {
          "attributes": {
            "NORMAL": 5,
            "POSITION": 4,
            "TEXCOORD_0": 6
          },
          "indices": 7,
          "material": 1,
          "mode": 4
        }
      ]
    },
    {
      "name": "Object_2",
      "primitives": [
        {
          "attributes": {
            "NORMAL": 9,
            "POSITION": 8,
            "TEXCOORD_0": 10
          },
          "indices": 11,
          "material": 2,
          "mode": 4
        }
      ]
    },
    {
      "name": "Object_3",
      "primitives": [
        {
          "attributes": {
            "NORMAL": 13,
            "POSITION": 12,
            "TEXCOORD_0": 14
          },
          "indices": 15,
          "material": 2,
          "mode": 4
        }
      ]
    },
    {
      "name": "Object_4",
      "primitives": [
        {
          "attributes": {
            "NORMAL": 17,
            "POSITION": 16,
            "TEXCOORD_0": 18
          },
          "indices": 19,
          "material": 1,
          "mode": 4
        }
      ]
    },
    {
      "name": "Object_5",
      "primitives": [
        {
          "attributes": {
            "NORMAL": 21,
            "POSITION": 20,
            "TEXCOORD_0": 22
          },
          "indices": 23,
          "material": 0,
          "mode": 4
        }
      ]
    }
  ],
  "nodes": [
    {
      "children": [
        1
      ],
      "matrix": [
        1.0,
        0.0,
        0.0,
        0.0,
        0.0,
        2.220446049250313e-16,
        -1.0,
        0.0,
        0.0,
        1.0,
        2.220446049250313e-16,
        0.0,
        0.0,
        0.0,
        0.0,
        1.0
      ],
      "name": "Sketchfab_model"
    },
    {
      "children": [
        2
      ],
      "matrix": [
        1.0,
        0.0,
        0.0,
        0.0,
        0.0,
        -4.371139006309477e-08,
        0.999999999999999,
        0.0,
        0.0,
        -0.999999999999999,
        -4.371139006309477e-08,
        0.0,
        0.0,
        0.0,
        0.0,
        1.0
      ],
      "name": "Collada visual scene group"
    },
    {
      "children": [
        3,
        4,
        5,
        6,
        7,
        8
      ],
      "name": "Object_2"
    },
    {
      "mesh": 0,
      "name": "Object_3"
    },
    {
      "mesh": 1,
      "name": "Object_4"
    },
    {
      "mesh": 2,
      "name": "Object_5"
    },
    {
      "mesh": 3,
      "name": "Object_6"
    },
    {
      "mesh": 4,
      "name": "Object_7"
    },
    {
      "mesh": 5,
      "name": "Object_8"
    }
  ],
  "samplers": [
    {
      "magFilter": 9729,
      "minFilter": 9987,
      "wrapS": 10497,
      "wrapT": 10497
    }
  ],
  "scene": 0,
  "scenes": [
    {
      "name": "Sketchfab_Scene",
      "nodes": [
        0
      ]
    }
  ],
  "textures": [
    {
      "sampler": 0,
      "source": 0
    },
    {
      "sampler": 0,
      "source": 1
    },
    {
      "sampler": 0,
      "source": 2
    }
  ]
}
